<svg width="177" height="25" viewBox="0 0 177 25" fill="none" xmlns="http://www.w3.org/2000/svg">
<path d="M12.376 24.384C10.0933 24.384 8.024 23.8933 6.168 22.912C4.33333 21.9093 2.88267 20.5333 1.816 18.784C0.770667 17.0133 0.248 15.0187 0.248 12.8C0.248 10.5813 0.770667 8.59733 1.816 6.848C2.88267 5.07733 4.33333 3.70133 6.168 2.72C8.024 1.71733 10.104 1.216 12.408 1.216C14.3493 1.216 16.0987 1.55733 17.656 2.24C19.2347 2.92267 20.5573 3.904 21.624 5.184L18.296 8.256C16.7813 6.50667 14.904 5.632 12.664 5.632C11.2773 5.632 10.04 5.94133 8.952 6.56C7.864 7.15733 7.01067 8 6.392 9.088C5.79467 10.176 5.496 11.4133 5.496 12.8C5.496 14.1867 5.79467 15.424 6.392 16.512C7.01067 17.6 7.864 18.4533 8.952 19.072C10.04 19.6693 11.2773 19.968 12.664 19.968C14.904 19.968 16.7813 19.0827 18.296 17.312L21.624 20.384C20.5573 21.6853 19.2347 22.6773 17.656 23.36C16.0773 24.0427 14.3173 24.384 12.376 24.384ZM24.8728 0.255999H29.8648V24H24.8728V0.255999ZM51.4618 15.456C51.4618 15.52 51.4298 15.968 51.3658 16.8H38.3418C38.5764 17.8667 39.1311 18.7093 40.0058 19.328C40.8804 19.9467 41.9684 20.256 43.2698 20.256C44.1658 20.256 44.9551 20.128 45.6378 19.872C46.3418 19.5947 46.9924 19.168 47.5898 18.592L50.2458 21.472C48.6244 23.328 46.2564 24.256 43.1418 24.256C41.2004 24.256 39.4831 23.8827 37.9898 23.136C36.4964 22.368 35.3444 21.312 34.5338 19.968C33.7231 18.624 33.3178 17.0987 33.3178 15.392C33.3178 13.7067 33.7124 12.192 34.5018 10.848C35.3124 9.48267 36.4111 8.42667 37.7978 7.68C39.2058 6.912 40.7738 6.528 42.5018 6.528C44.1871 6.528 45.7124 6.89067 47.0778 7.616C48.4431 8.34133 49.5098 9.38667 50.2778 10.752C51.0671 12.096 51.4618 13.664 51.4618 15.456ZM42.5338 10.304C41.4031 10.304 40.4538 10.624 39.6858 11.264C38.9178 11.904 38.4484 12.7787 38.2778 13.888H46.7578C46.5871 12.8 46.1178 11.936 45.3498 11.296C44.5818 10.6347 43.6431 10.304 42.5338 10.304ZM71.6607 6.784L64.3967 24H59.2447L52.0127 6.784H57.1647L61.9327 18.496L66.8608 6.784H71.6607ZM90.193 15.456C90.193 15.52 90.161 15.968 90.097 16.8H77.073C77.3077 17.8667 77.8623 18.7093 78.737 19.328C79.6117 19.9467 80.6997 20.256 82.001 20.256C82.897 20.256 83.6863 20.128 84.369 19.872C85.073 19.5947 85.7237 19.168 86.321 18.592L88.977 21.472C87.3557 23.328 84.9877 24.256 81.873 24.256C79.9317 24.256 78.2143 23.8827 76.721 23.136C75.2277 22.368 74.0757 21.312 73.265 19.968C72.4543 18.624 72.049 17.0987 72.049 15.392C72.049 13.7067 72.4437 12.192 73.233 10.848C74.0437 9.48267 75.1423 8.42667 76.529 7.68C77.937 6.912 79.505 6.528 81.233 6.528C82.9183 6.528 84.4437 6.89067 85.809 7.616C87.1743 8.34133 88.241 9.38667 89.009 10.752C89.7983 12.096 90.193 13.664 90.193 15.456ZM81.265 10.304C80.1343 10.304 79.185 10.624 78.417 11.264C77.649 11.904 77.1797 12.7787 77.009 13.888H85.489C85.3183 12.8 84.849 11.936 84.081 11.296C83.313 10.6347 82.3743 10.304 81.265 10.304ZM98.3845 9.056C98.9818 8.224 99.7818 7.59467 100.785 7.168C101.809 6.74133 102.982 6.528 104.305 6.528V11.136C103.75 11.0933 103.377 11.072 103.185 11.072C101.755 11.072 100.635 11.4773 99.8245 12.288C99.0138 13.0773 98.6085 14.272 98.6085 15.872V24H93.6165V6.784H98.3845V9.056ZM107.373 0.255999H112.365V24H107.373V0.255999ZM124.042 6.528C126.708 6.528 128.756 7.168 130.186 8.448C131.615 9.70667 132.33 11.616 132.33 14.176V24H127.658V21.856C126.719 23.456 124.97 24.256 122.41 24.256C121.087 24.256 119.935 24.032 118.954 23.584C117.994 23.136 117.258 22.5173 116.746 21.728C116.234 20.9387 115.978 20.0427 115.978 19.04C115.978 17.44 116.575 16.1813 117.77 15.264C118.986 14.3467 120.852 13.888 123.37 13.888H127.338C127.338 12.8 127.007 11.968 126.346 11.392C125.684 10.7947 124.692 10.496 123.37 10.496C122.452 10.496 121.546 10.6453 120.65 10.944C119.775 11.2213 119.028 11.6053 118.41 12.096L116.618 8.608C117.556 7.94667 118.676 7.43467 119.978 7.072C121.3 6.70933 122.655 6.528 124.042 6.528ZM123.658 20.896C124.511 20.896 125.268 20.704 125.93 20.32C126.591 19.9147 127.06 19.328 127.338 18.56V16.8H123.914C121.866 16.8 120.842 17.472 120.842 18.816C120.842 19.456 121.087 19.968 121.578 20.352C122.09 20.7147 122.783 20.896 123.658 20.896ZM147.412 6.528C149.545 6.528 151.262 7.168 152.564 8.448C153.886 9.728 154.548 11.6267 154.548 14.144V24H149.556V14.912C149.556 13.5467 149.257 12.5333 148.66 11.872C148.062 11.1893 147.198 10.848 146.068 10.848C144.809 10.848 143.806 11.2427 143.06 12.032C142.313 12.8 141.94 13.952 141.94 15.488V24H136.948V6.784H141.716V8.8C142.377 8.07467 143.198 7.52 144.18 7.136C145.161 6.73067 146.238 6.528 147.412 6.528ZM176.896 0.255999V24H172.128V22.016C170.891 23.5093 169.099 24.256 166.752 24.256C165.131 24.256 163.659 23.8933 162.336 23.168C161.035 22.4427 160.011 21.408 159.264 20.064C158.518 18.72 158.144 17.1627 158.144 15.392C158.144 13.6213 158.518 12.064 159.264 10.72C160.011 9.376 161.035 8.34133 162.336 7.616C163.659 6.89067 165.131 6.528 166.752 6.528C168.95 6.528 170.667 7.22133 171.904 8.608V0.255999H176.896ZM167.616 20.16C168.875 20.16 169.92 19.7333 170.752 18.88C171.584 18.0053 172 16.8427 172 15.392C172 13.9413 171.584 12.7893 170.752 11.936C169.92 11.0613 168.875 10.624 167.616 10.624C166.336 10.624 165.28 11.0613 164.448 11.936C163.616 12.7893 163.2 13.9413 163.2 15.392C163.2 16.8427 163.616 18.0053 164.448 18.88C165.28 19.7333 166.336 20.16 167.616 20.16Z" fill="white"/>
</svg>
